<svg width="100" height="100" viewBox="0 0 100 100" fill="none" xmlns="http://www.w3.org/2000/svg">
<path d="M83.3333 16.6667C84.1524 16.6633 84.9523 16.4186 85.6331 15.9631C86.3138 15.5076 86.8453 14.8616 87.1609 14.1058C87.4766 13.35 87.5625 12.5179 87.4079 11.7136C87.2533 10.9092 86.865 10.1683 86.2917 9.58332C85.9043 9.19279 85.4435 8.88281 84.9357 8.67128C84.428 8.45974 83.8834 8.35083 83.3333 8.35083C82.7833 8.35083 82.2387 8.45974 81.7309 8.67128C81.2232 8.88281 80.7623 9.19279 80.375 9.58332C80.0002 9.96728 79.7031 10.42 79.5 10.9167C79.2667 11.4112 79.1526 11.9534 79.1667 12.5C79.1667 13.6051 79.6056 14.6649 80.387 15.4463C81.1684 16.2277 82.2283 16.6667 83.3333 16.6667ZM83.3333 54.1667C82.2283 54.1667 81.1684 54.6056 80.387 55.387C79.6056 56.1684 79.1667 57.2283 79.1667 58.3333V59.9583L73 53.7917C71.9273 52.712 70.6517 51.8552 69.2465 51.2705C67.8414 50.6858 66.3344 50.3848 64.8125 50.3848C63.2906 50.3848 61.7836 50.6858 60.3785 51.2705C58.9733 51.8552 57.6977 52.712 56.625 53.7917L53.7083 56.7083L43.375 46.3333C41.1624 44.2411 38.2327 43.0753 35.1875 43.0753C32.1423 43.0753 29.2126 44.2411 27 46.3333L20.8333 52.5V29.1667C20.8333 28.0616 21.2723 27.0018 22.0537 26.2204C22.8351 25.439 23.8949 25 25 25H66.6667C67.7717 25 68.8315 24.561 69.6129 23.7796C70.3943 22.9982 70.8333 21.9384 70.8333 20.8333C70.8333 19.7283 70.3943 18.6684 69.6129 17.887C68.8315 17.1056 67.7717 16.6667 66.6667 16.6667H25C21.6848 16.6667 18.5054 17.9836 16.1612 20.3278C13.817 22.672 12.5 25.8514 12.5 29.1667V79.1667C12.5 82.4819 13.817 85.6613 16.1612 88.0055C18.5054 90.3497 21.6848 91.6666 25 91.6666H75C78.3152 91.6666 81.4946 90.3497 83.8388 88.0055C86.183 85.6613 87.5 82.4819 87.5 79.1667V58.3333C87.5 57.2283 87.061 56.1684 86.2796 55.387C85.4982 54.6056 84.4384 54.1667 83.3333 54.1667ZM25 83.3333C23.8949 83.3333 22.8351 82.8943 22.0537 82.1129C21.2723 81.3315 20.8333 80.2717 20.8333 79.1667V64.2917L32.9167 52.2083C33.5288 51.625 34.3419 51.2996 35.1875 51.2996C36.0331 51.2996 36.8462 51.625 37.4583 52.2083L50.6667 65.4167L68.5417 83.3333H25ZM79.1667 79.1667C79.132 79.9592 78.8718 80.7253 78.4167 81.375L59.625 62.5L62.5417 59.5833C63.1506 58.9778 63.9745 58.6378 64.8333 58.6378C65.6921 58.6378 66.516 58.9778 67.125 59.5833L79.1667 71.75V79.1667ZM83.3333 20.8333C82.2283 20.8333 81.1684 21.2723 80.387 22.0537C79.6056 22.8351 79.1667 23.8949 79.1667 25V41.6667C79.1667 42.7717 79.6056 43.8315 80.387 44.6129C81.1684 45.3943 82.2283 45.8333 83.3333 45.8333C84.4384 45.8333 85.4982 45.3943 86.2796 44.6129C87.061 43.8315 87.5 42.7717 87.5 41.6667V25C87.5 23.8949 87.061 22.8351 86.2796 22.0537C85.4982 21.2723 84.4384 20.8333 83.3333 20.8333Z" fill="#4A4A68"/>
</svg>
