<svg width="20" height="20" viewBox="0 0 20 20" fill="none" xmlns="http://www.w3.org/2000/svg">
<path d="M16.8 3.84167C15.9153 2.95668 14.7423 2.41861 13.4944 2.32533C12.2464 2.23204 11.0065 2.58973 10 3.33334C8.93972 2.54471 7.62 2.1871 6.30661 2.33254C4.99321 2.47798 3.78371 3.11566 2.92165 4.11716C2.05959 5.11867 1.60902 6.40961 1.66067 7.73002C1.71232 9.05043 2.26235 10.3022 3.20001 11.2333L9.40834 17.4417C9.48581 17.5198 9.57798 17.5818 9.67953 17.6241C9.78107 17.6664 9.89 17.6882 10 17.6882C10.11 17.6882 10.2189 17.6664 10.3205 17.6241C10.422 17.5818 10.5142 17.5198 10.5917 17.4417L16.8 11.2333C17.2856 10.7481 17.6707 10.172 17.9335 9.53781C18.1963 8.90367 18.3316 8.22395 18.3316 7.53751C18.3316 6.85106 18.1963 6.17135 17.9335 5.5372C17.6707 4.90305 17.2856 4.3269 16.8 3.84167ZM15.625 10.0583L10 15.675L4.37501 10.0583C3.87932 9.56059 3.54165 8.92755 3.40436 8.23862C3.26708 7.5497 3.33628 6.83558 3.6033 6.18584C3.87032 5.53609 4.32325 4.97967 4.90529 4.58636C5.48733 4.19305 6.17256 3.98037 6.87501 3.97501C7.81343 3.97731 8.71259 4.35195 9.37501 5.01667C9.45248 5.09478 9.54464 5.15678 9.64619 5.19908C9.74774 5.24139 9.85666 5.26317 9.96667 5.26317C10.0767 5.26317 10.1856 5.24139 10.2872 5.19908C10.3887 5.15678 10.4809 5.09478 10.5583 5.01667C11.2403 4.42574 12.1213 4.11596 13.023 4.15003C13.9247 4.18409 14.7798 4.55946 15.4152 5.20016C16.0506 5.84087 16.4188 6.69904 16.4454 7.601C16.472 8.50296 16.1549 9.38133 15.5583 10.0583H15.625Z" fill="#0E0E2C"/>
</svg>
