<svg width="130" height="178" viewBox="0 0 130 178" fill="none" xmlns="http://www.w3.org/2000/svg">
<path d="M47.783 175.875C35.1414 172.738 23.7849 165.755 15.2805 155.889C6.77603 146.024 1.54281 133.762 0.302838 120.796C-0.937133 107.83 1.87727 94.7991 8.35772 83.5005C14.8382 72.202 24.6653 63.1931 36.4832 57.7167C37.6722 57.1169 38.9698 56.7623 40.2987 56.6741C41.6275 56.5858 42.9606 56.7656 44.2186 57.2029C45.4765 57.6402 46.6337 58.3259 47.6214 59.2194C48.609 60.1129 49.4069 61.1958 49.9676 62.4039C50.5283 63.6119 50.8403 64.9203 50.8852 66.2514C50.93 67.5824 50.7068 68.9089 50.2287 70.1519C49.7506 71.395 49.0275 72.5292 48.1022 73.4871C47.177 74.4451 46.0686 75.2072 44.8429 75.7281C36.7516 79.473 30.0222 85.6372 25.5837 93.3698C21.1451 101.102 19.2162 110.022 20.0633 118.898C20.9103 127.773 24.4915 136.167 30.3126 142.921C36.1337 149.674 43.9075 154.454 52.5611 156.601C61.2147 158.748 70.3213 158.155 78.624 154.906C86.9266 151.656 94.0159 145.91 98.9132 138.459C103.811 131.009 106.274 122.222 105.965 113.311C105.655 104.401 102.587 95.8059 97.1844 88.7133C95.6633 86.6076 95.0261 83.9905 95.409 81.4212C95.7919 78.8519 97.1645 76.5343 99.2336 74.9636C101.303 73.393 103.904 72.6938 106.481 73.0157C109.059 73.3375 111.409 74.6547 113.028 76.6859C120.922 87.051 125.404 99.611 125.854 112.632C126.305 125.653 122.703 138.493 115.544 149.379C108.386 160.265 98.0248 168.661 85.8912 173.407C73.7576 178.153 60.4499 179.015 47.8053 175.875" fill="#C8102E"/>
<path d="M124.469 37.7156C125.648 37.142 126.702 36.3408 127.57 35.3581C128.438 34.3754 129.104 33.2307 129.528 31.9899C129.951 30.749 130.126 29.4366 130.04 28.1281C129.955 26.8197 129.611 25.541 129.03 24.3659C128.448 23.1907 127.639 22.1422 126.651 21.2808C125.662 20.4194 124.513 19.7621 123.269 19.3468C122.025 18.9314 120.712 18.7662 119.404 18.8607C118.096 18.9551 116.82 19.3074 115.649 19.8972C79.6482 37.7156 64.5323 62.6687 58.1845 80.4574C51.1908 100.065 53.032 115.626 53.1137 116.28C53.7893 121.67 58.8898 125.263 64.2502 124.588C66.8178 124.257 69.1514 122.928 70.7444 120.887C72.3374 118.846 73.0612 116.26 72.7584 113.689C72.6248 112.152 71.8378 100.577 77.1685 86.2187C84.7859 65.8389 100.689 49.5128 124.439 37.7156" fill="#43B02A"/>
<path d="M103.696 15.6431C103.696 15.6431 88.9435 34.048 69.5437 35.1097C50.1439 36.1713 33.4911 19.5186 33.4911 19.5186C33.4911 19.5186 48.2581 1.11366 67.6431 0.0519857C87.028 -1.00969 103.696 15.6431 103.696 15.6431Z" fill="#43B02A"/>
</svg>
