<svg width="90" height="16" viewBox="0 0 90 16" fill="none" xmlns="http://www.w3.org/2000/svg">
<path d="M7.10326 1.81698C7.47008 1.07374 8.52992 1.07374 8.89674 1.81699L10.1185 4.29249C10.2641 4.58763 10.5457 4.7922 10.8714 4.83953L13.6033 5.2365C14.4235 5.35568 14.751 6.36365 14.1575 6.94219L12.1807 8.8691C11.945 9.09884 11.8375 9.42984 11.8931 9.75423L12.3598 12.4751C12.4999 13.292 11.6424 13.9149 10.9088 13.5293L8.46534 12.2446C8.17402 12.0915 7.82598 12.0915 7.53466 12.2446L5.09119 13.5293C4.35756 13.9149 3.50013 13.292 3.64024 12.4751L4.1069 9.75423C4.16254 9.42984 4.05499 9.09884 3.81931 8.8691L1.8425 6.94219C1.24898 6.36365 1.57649 5.35568 2.39671 5.2365L5.12859 4.83953C5.4543 4.7922 5.73587 4.58763 5.88153 4.29249L7.10326 1.81698Z" fill="#F2C94C"/>
<path d="M25.5033 1.81698C25.8701 1.07374 26.9299 1.07374 27.2967 1.81699L28.5185 4.29249C28.6641 4.58763 28.9457 4.7922 29.2714 4.83953L32.0033 5.2365C32.8235 5.35568 33.151 6.36365 32.5575 6.94219L30.5807 8.8691C30.345 9.09884 30.2375 9.42984 30.2931 9.75423L30.7598 12.4751C30.8999 13.292 30.0424 13.9149 29.3088 13.5293L26.8653 12.2446C26.574 12.0915 26.226 12.0915 25.9347 12.2446L23.4912 13.5293C22.7576 13.9149 21.9001 13.292 22.0402 12.4751L22.5069 9.75423C22.5625 9.42984 22.455 9.09884 22.2193 8.8691L20.2425 6.94219C19.649 6.36365 19.9765 5.35568 20.7967 5.2365L23.5286 4.83953C23.8543 4.7922 24.1359 4.58763 24.2815 4.29249L25.5033 1.81698Z" fill="#F2C94C"/>
<path d="M43.9033 1.81698C44.2701 1.07374 45.3299 1.07374 45.6967 1.81699L46.9185 4.29249C47.0641 4.58763 47.3457 4.7922 47.6714 4.83953L50.4033 5.2365C51.2235 5.35568 51.551 6.36365 50.9575 6.94219L48.9807 8.8691C48.745 9.09884 48.6374 9.42984 48.6931 9.75423L49.1597 12.4751C49.2999 13.292 48.4424 13.9149 47.7088 13.5293L45.2653 12.2446C44.974 12.0915 44.626 12.0915 44.3346 12.2446L41.8912 13.5293C41.1575 13.9149 40.3001 13.292 40.4402 12.4751L40.9069 9.75423C40.9625 9.42984 40.855 9.09884 40.6193 8.8691L38.6425 6.94219C38.049 6.36365 38.3765 5.35568 39.1967 5.2365L41.9286 4.83953C42.2543 4.7922 42.5359 4.58763 42.6815 4.29249L43.9033 1.81698Z" fill="#F2C94C"/>
<path d="M62.3033 1.81698C62.6701 1.07374 63.7299 1.07374 64.0967 1.81699L65.3185 4.29249C65.4641 4.58763 65.7457 4.7922 66.0714 4.83953L68.8033 5.2365C69.6235 5.35568 69.951 6.36365 69.3575 6.94219L67.3807 8.8691C67.145 9.09884 67.0375 9.42984 67.0931 9.75423L67.5598 12.4751C67.6999 13.292 66.8424 13.9149 66.1088 13.5293L63.6654 12.2446C63.374 12.0915 63.026 12.0915 62.7347 12.2446L60.2912 13.5293C59.5576 13.9149 58.7001 13.292 58.8403 12.4751L59.3069 9.75423C59.3626 9.42984 59.255 9.09884 59.0193 8.8691L57.0425 6.94219C56.449 6.36365 56.7765 5.35568 57.5967 5.2365L60.3286 4.83953C60.6543 4.7922 60.9359 4.58763 61.0815 4.29249L62.3033 1.81698Z" fill="#F2C94C"/>
<path d="M80.7033 1.81698C81.0701 1.07374 82.1299 1.07374 82.4967 1.81699L83.7185 4.29249C83.8641 4.58763 84.1457 4.7922 84.4714 4.83953L87.2033 5.2365C88.0235 5.35568 88.351 6.36365 87.7575 6.94219L85.7807 8.8691C85.545 9.09884 85.4375 9.42984 85.4931 9.75423L85.9598 12.4751C86.0999 13.292 85.2424 13.9149 84.5088 13.5293L82.0653 12.2446C81.774 12.0915 81.426 12.0915 81.1347 12.2446L78.6912 13.5293C77.9576 13.9149 77.1001 13.292 77.2402 12.4751L77.7069 9.75423C77.7625 9.42984 77.655 9.09884 77.4193 8.8691L75.4425 6.94219C74.849 6.36365 75.1765 5.35568 75.9967 5.2365L78.7286 4.83953C79.0543 4.7922 79.3359 4.58763 79.4815 4.29249L80.7033 1.81698Z" fill="#D4DEE7"/>
</svg>
